<?xml version="1.0" encoding="UTF-8" standalone="no"?>
<svg
   xmlns:dc="http://purl.org/dc/elements/1.1/"
   xmlns:cc="http://creativecommons.org/ns#"
   xmlns:rdf="http://www.w3.org/1999/02/22-rdf-syntax-ns#"
   xmlns:svg="http://www.w3.org/2000/svg"
   xmlns="http://www.w3.org/2000/svg"
   xmlns:sodipodi="http://sodipodi.sourceforge.net/DTD/sodipodi-0.dtd"
   xmlns:inkscape="http://www.inkscape.org/namespaces/inkscape"
   width="1000"
   height="998"
   version="1"
   id="svg24"
   sodipodi:docname="cd_large.svg"
   inkscape:version="0.92.4 5da689c313, 2019-01-14">
  <metadata
     id="metadata30">
    <rdf:RDF>
      <cc:Work
         rdf:about="">
        <dc:format>image/svg+xml</dc:format>
        <dc:type
           rdf:resource="http://purl.org/dc/dcmitype/StillImage" />
        <dc:title></dc:title>
      </cc:Work>
    </rdf:RDF>
  </metadata>
  <defs
     id="defs28" />
  <sodipodi:namedview
     pagecolor="#ffffff"
     bordercolor="#666666"
     borderopacity="1"
     objecttolerance="10"
     gridtolerance="10"
     guidetolerance="10"
     inkscape:pageopacity="0"
     inkscape:pageshadow="2"
     inkscape:window-width="1920"
     inkscape:window-height="1049"
     id="namedview26"
     showgrid="false"
     inkscape:zoom="0.86915209"
     inkscape:cx="165.36609"
     inkscape:cy="474.49434"
     inkscape:window-x="0"
     inkscape:window-y="31"
     inkscape:window-maximized="1"
     inkscape:current-layer="svg24" />
  <path
     style="fill:#848484;stroke-width:19.622715"
     d="M 471.24171,280.30872 A 196.22715,196.22715 0 0 0 275.01456,476.53587 196.22715,196.22715 0 0 0 471.24171,672.76303 196.22715,196.22715 0 0 0 667.46886,476.53587 196.22715,196.22715 0 0 0 471.24171,280.30872 Z m 0,117.73628 c 43.34658,0 78.49087,35.14429 78.49087,78.49087 0,43.34658 -35.14429,78.49083 -78.49087,78.49083 -43.34658,0 -78.49087,-35.14425 -78.49087,-78.49083 0,-43.34854 35.14232,-78.49087 78.49087,-78.49087 z"
     id="path2"
     inkscape:connector-curvature="0" />
  <path
     style="fill:#e4e4e4;stroke-width:19.622715"
     d="m 471.24171,84.08157 c -217.41967,0 -392.454302,175.03459 -392.454302,392.4543 0,217.41984 175.034632,392.45444 392.454302,392.45444 217.41971,0 392.45431,-175.0346 392.45431,-392.45444 0,-217.41971 -175.0346,-392.4543 -392.45431,-392.4543 z m 0,235.47257 A 156.98172,156.98172 0 0 1 628.22345,476.53587 156.98172,156.98172 0 0 1 471.24171,633.51748 156.98172,156.98172 0 0 1 314.25997,476.53587 156.98172,156.98172 0 0 1 471.24171,319.55414 Z"
     id="path4"
     inkscape:connector-curvature="0" />
  <path
     d="m 471.24171,84.08157 c 217.22346,0 392.10112,175.03459 392.10112,392.4543 0,3.29407 -0.15705,6.53712 -0.22937,9.81133 -5.18041,-212.82795 -177.9388,-382.64295 -391.86567,-382.64295 -213.92682,0 -386.685223,169.815 -391.865624,382.64295 -0.07831,-3.27421 -0.229378,-6.51726 -0.229378,-9.81133 0,-217.41971 174.875702,-392.4543 392.101122,-392.4543 z m 77.42341,402.26563 c 0.40954,3.24775 0.99582,6.45255 0.99582,9.81136 0,43.34855 -35.10894,78.49087 -78.41824,78.49087 -43.30931,0 -78.41825,-35.14232 -78.41825,-78.49087 0,-3.35881 0.58611,-6.56361 0.99583,-9.81136 4.86997,38.66854 37.46957,68.6795 77.4234,68.6795 39.95379,0 72.55301,-30.01096 77.4234,-68.6795 z"
     id="path6"
     inkscape:connector-curvature="0"
     style="opacity:0.2;fill:#ffffff;stroke-width:19.622715" />
  <path
     d="m 79.018969,486.3472 c -0.08045,3.27703 -0.229806,6.51477 -0.229806,9.81136 0,217.41971 175.034597,392.4543 392.454307,392.4543 217.41966,0 392.4543,-175.03459 392.4543,-392.4543 0,-3.29659 -0.15705,-6.53433 -0.23537,-9.81136 -5.1804,212.82816 -178.09581,382.64311 -392.21885,382.64311 -214.12308,0 -387.038445,-169.81495 -392.218846,-382.64311 z"
     id="path8"
     inkscape:connector-curvature="0"
     style="opacity:0.2;stroke-width:19.622715" />
  <circle
     cx="706.71423"
     cy="731.63129"
     id="circle10"
     r="215.84985"
     style="opacity:0.2;stroke-width:19.622715" />
  <circle
     cx="706.71423"
     cy="712.00861"
     id="circle12"
     r="215.84985"
     style="fill:#5fbb20;stroke-width:19.622715" />
  <circle
     style="fill:#ffffff;stroke-width:19.622715"
     cx="628.22351"
     cy="790.49933"
     id="circle14"
     r="58.868145" />
  <circle
     style="fill:#ffffff;stroke-width:19.622715"
     cx="785.2052"
     cy="790.49933"
     id="circle16"
     r="58.868145" />
  <rect
     style="fill:#ffffff;stroke-width:19.622715"
     width="19.622715"
     height="176.60443"
     x="667.46887"
     y="613.89502"
     id="rect18" />
  <rect
     style="fill:#ffffff;stroke-width:19.622715"
     width="19.622715"
     height="176.60443"
     x="824.4505"
     y="613.89502"
     id="rect20" />
  <rect
     style="fill:#ffffff;stroke-width:19.622715"
     width="58.868145"
     height="176.60443"
     x="594.27234"
     y="-844.07318"
     transform="rotate(90)"
     id="rect22" />
</svg>
